<?xml version="1.0" standalone="no"?><!-- Created with ZXing.Net (http://zxingnet.codeplex.com/) --><!DOCTYPE svg PUBLIC "-//W3C//DTD SVG 1.1//EN" "http://www.w3.org/Graphics/SVG/1.1/DTD/svg11.dtd"><svg xmlns="http://www.w3.org/2000/svg" version="1.2" baseProfile="tiny" shape-rendering="crispEdges" viewBox="0 0 133 43" viewport-fill="rgb(255,255,255)" viewport-fill-opacity="1" fill="rgb(0,0,0)" fill-opacity="1" style="background-color:rgb(255,255,255);background-color:rgba(255, 255, 255, 1);"><rect x="5" y="0" width="2" height="30"/><rect x="8" y="0" width="1" height="30"/><rect x="11" y="0" width="3" height="30"/><rect x="16" y="0" width="1" height="30"/><rect x="18" y="0" width="1" height="30"/><rect x="22" y="0" width="2" height="30"/><rect x="27" y="0" width="3" height="30"/><rect x="31" y="0" width="2" height="30"/><rect x="34" y="0" width="3" height="30"/><rect x="38" y="0" width="1" height="30"/><rect x="41" y="0" width="1" height="30"/><rect x="44" y="0" width="2" height="30"/><rect x="49" y="0" width="2" height="30"/><rect x="52" y="0" width="2" height="30"/><rect x="56" y="0" width="2" height="30"/><rect x="60" y="0" width="2" height="30"/><rect x="63" y="0" width="2" height="30"/><rect x="67" y="0" width="2" height="30"/><rect x="71" y="0" width="2" height="30"/><rect x="74" y="0" width="2" height="30"/><rect x="79" y="0" width="2" height="30"/><rect x="82" y="0" width="1" height="30"/><rect x="84" y="0" width="4" height="30"/><rect x="89" y="0" width="3" height="30"/><rect x="93" y="0" width="2" height="30"/><rect x="97" y="0" width="3" height="30"/><rect x="102" y="0" width="1" height="30"/><rect x="104" y="0" width="2" height="30"/><rect x="107" y="0" width="4" height="30"/><rect x="112" y="0" width="2" height="30"/><rect x="115" y="0" width="2" height="30"/><rect x="120" y="0" width="3" height="30"/><rect x="124" y="0" width="1" height="30"/><rect x="126" y="0" width="2" height="30"/><text x="50%" y="98%" style="font-family: Arial; font-size: 10px" text-anchor="middle">3323030000312</text></svg>