<?xml version="1.0" encoding="UTF-8" standalone="no"?>
<!-- Created with Inkscape (http://www.inkscape.org/) -->

<svg
   width="73.05986mm"
   height="72.880554mm"
   viewBox="0 0 73.05986 72.880554"
   version="1.1"
   id="svg8180"
   inkscape:export-filename="makeSale.svg"
   inkscape:export-xdpi="96"
   inkscape:export-ydpi="96"
   inkscape:version="1.2.2 (732a01da63, 2022-12-09)"
   sodipodi:docname="drawing.svg"
   xmlns:inkscape="http://www.inkscape.org/namespaces/inkscape"
   xmlns:sodipodi="http://sodipodi.sourceforge.net/DTD/sodipodi-0.dtd"
   xmlns="http://www.w3.org/2000/svg"
   xmlns:svg="http://www.w3.org/2000/svg">
  <sodipodi:namedview
     id="namedview8182"
     pagecolor="#f5fbff"
     bordercolor="#000000"
     borderopacity="0.25"
     inkscape:showpageshadow="2"
     inkscape:pageopacity="0"
     inkscape:pagecheckerboard="0"
     inkscape:deskcolor="#d1d1d1"
     inkscape:document-units="mm"
     showgrid="false"
     inkscape:zoom="0.18173428"
     inkscape:cx="1815.8379"
     inkscape:cy="770.35549"
     inkscape:window-width="1366"
     inkscape:window-height="705"
     inkscape:window-x="-8"
     inkscape:window-y="-8"
     inkscape:window-maximized="1"
     inkscape:current-layer="g11475" />
  <defs
     id="defs8177" />
  <g
     inkscape:label="Layer 1"
     inkscape:groupmode="layer"
     id="layer1"
     transform="translate(-108.45183,-221.49783)">
    <g
       id="g11475"
       transform="matrix(4.5636159,0,0,4.5636159,-130.34977,-7.0901489)"
       style="stroke-width:0.219125">
      <g
         id="g13908"
         transform="matrix(3.6944331,0,0,3.5636203,-142.9371,-121.08327)"
         style="stroke-width:0.060391">
        <path
           d="m 53.976026,52.171766 -0.241647,0.241646 -0.779361,-0.779438 0.748208,-0.74813 1.815906,0.194801 c 0.06238,0.0078 0.116959,0.03115 0.155919,0.07011 0.03896,0.03904 0.07011,0.09354 0.07792,0.155919 0.0078,0.04677 0,0.08573 -0.01561,0.124688 l 0.896319,-0.896241 c 0.05457,-0.05458 0.124688,-0.078 0.194878,-0.078 0.07011,0 0.140227,0.02342 0.194802,0.078 0.109073,0.109073 0.109073,0.288337 0,0.397487 l -1.301537,1.301538 -1.745793,-0.06238"
           style="fill:#ffd8a8;fill-opacity:1;fill-rule:nonzero;stroke:none;stroke-width:0.000466835"
           id="path948-2" />
        <path
           d="m 55.347676,48.126851 c -0.70144,0 -1.270384,0.568944 -1.270384,1.270307 0,0.701517 0.568944,1.262654 1.270384,1.262654 0.70144,0 1.262577,-0.568944 1.262577,-1.262654 0,-0.693556 -0.568867,-1.270307 -1.262577,-1.270307"
           style="fill:#ffb95a;fill-opacity:1;fill-rule:nonzero;stroke:none;stroke-width:0.000466835"
           id="path950-0" />
        <path
           d="m 55.347676,48.617797 c -0.428641,0 -0.779361,0.35072 -0.779361,0.779361 0,0.428718 0.35072,0.779438 0.779361,0.779438 0.428641,0 0.779438,-0.35072 0.779438,-0.779438 0,-0.428641 -0.350797,-0.779361 -0.779438,-0.779361"
           style="fill:#fcd884;fill-opacity:1;fill-rule:nonzero;stroke:none;stroke-width:0.000466835"
           id="path952-1" />
        <path
           d="m 55.324331,49.272547 v -0.155919 c -0.05457,0.0078 -0.08573,0.03115 -0.08573,0.07019 0,0.02334 0.0078,0.03896 0.02342,0.04669 0.01554,0.01562 0.03115,0.03115 0.06231,0.03904 z m 0,0.210416 -0.06231,-0.01561 c -0.03904,-0.01562 -0.078,-0.02342 -0.101343,-0.03896 -0.03123,-0.01561 -0.05457,-0.03123 -0.07019,-0.04677 -0.01554,-0.01561 -0.03115,-0.03896 -0.04677,-0.06238 -0.0077,-0.02334 -0.01554,-0.05457 -0.01554,-0.08573 0,-0.03896 0.0077,-0.07792 0.02334,-0.116881 0.01562,-0.03115 0.03115,-0.06238 0.06238,-0.08573 0.02335,-0.02342 0.05458,-0.03896 0.08573,-0.05457 0.03115,-0.01562 0.07011,-0.02335 0.109074,-0.02335 v -0.124765 h 0.08573 v 0.124765 c 0.05457,0.0077 0.101343,0.01554 0.148111,0.03896 0.04677,0.01554 0.08573,0.03896 0.124688,0.05457 l -0.08573,0.171379 c 0,0 -0.0078,-0.0077 -0.02335,-0.01554 -0.01561,-0.0078 -0.02342,-0.01554 -0.04677,-0.02334 -0.01561,-0.0078 -0.03896,-0.01562 -0.06238,-0.02342 -0.02334,-0.0078 -0.04677,-0.01554 -0.07011,-0.01554 v 0.171379 l 0.03896,0.0078 c 0.03896,0.0078 0.07792,0.02342 0.116881,0.03896 0.03115,0.01561 0.06238,0.03123 0.08573,0.04677 0.02342,0.02342 0.03896,0.04677 0.05458,0.07019 0.01561,0.03115 0.01561,0.06231 0.01561,0.101343 0,0.04677 -0.0078,0.08573 -0.02342,0.116881 -0.01554,0.03115 -0.03896,0.06231 -0.06231,0.07792 -0.03123,0.02335 -0.06238,0.03896 -0.09354,0.04677 -0.03123,0.0078 -0.07019,0.01562 -0.116958,0.01562 v 0.140227 h -0.08573 v -0.148034 c -0.0545,-0.0078 -0.116881,-0.01562 -0.171456,-0.03123 -0.05458,-0.01554 -0.109074,-0.03896 -0.148034,-0.07011 l 0.08573,-0.179264 c 0,0.0078 0.01554,0.0078 0.02334,0.02342 0.01562,0.0078 0.03115,0.01554 0.05458,0.03115 0.02334,0.0078 0.04677,0.02342 0.07792,0.03115 0.03123,0.0078 0.05458,0.01561 0.08573,0.02342 v -0.171457 z m 0.06231,0.01554 v 0.148111 c 0.06238,0 0.09354,-0.02334 0.09354,-0.06238 0,-0.02334 -0.0077,-0.03896 -0.02335,-0.04677 -0.02342,-0.01554 -0.04677,-0.02334 -0.07019,-0.03896"
           style="fill:#000000;fill-opacity:1;fill-rule:nonzero;stroke:none;stroke-width:0.000466835"
           id="path954-2" />
        <path
           d="m 53.087514,51.633974 0.639058,0.639135 0.179264,-0.179264 c 0.01561,-0.01562 0.04677,-0.03115 0.07019,-0.03115 l 1.699025,0.06231 1.270384,-1.270384 c 0.07011,-0.07011 0.07011,-0.187072 0,-0.257185 -0.03115,-0.03115 -0.07792,-0.0545 -0.132496,-0.0545 -0.04677,0 -0.09354,0.01554 -0.132496,0.0545 l -0.872896,0.896242 c -0.06238,0.132573 -0.194879,0.210494 -0.335105,0.202686 l -0.997662,-0.04677 c -0.05458,0 -0.09346,-0.04677 -0.09346,-0.101343 0,-0.05457 0.04677,-0.09354 0.101266,-0.09354 l 0.997585,0.04677 c 0.06238,0 0.116958,-0.03115 0.140304,-0.07792 0,-0.01554 0.0078,-0.03115 0.01562,-0.03896 0.0078,-0.01554 0.0078,-0.03896 0.0078,-0.06231 -0.0078,-0.03904 -0.02342,-0.07019 -0.04677,-0.09354 -0.02342,-0.02342 -0.06238,-0.03896 -0.101343,-0.04677 v 0 l -1.769215,-0.194879 z m 0.646865,0.880704 c -0.02334,0 -0.04677,-0.0078 -0.07011,-0.03115 l -0.779361,-0.77936 c -0.01562,-0.01562 -0.03123,-0.04677 -0.03123,-0.07019 0,-0.02334 0.0078,-0.04677 0.03123,-0.07011 l 0.748208,-0.748208 c 0.02335,-0.02334 0.04669,-0.03115 0.07792,-0.03115 l 1.808098,0.202609 c 0.078,0.0078 0.155919,0.03904 0.218225,0.101344 0.03896,0.03115 0.06238,0.07792 0.078,0.116881 l 0.732593,-0.732593 c 0.07019,-0.07011 0.163649,-0.109074 0.264992,-0.109074 0.101344,0 0.194879,0.03896 0.264992,0.109074 0.07019,0.07019 0.109074,0.163648 0.109074,0.264992 0,0.101343 -0.03888,0.194878 -0.109074,0.264992 l -1.293807,1.301537 c -0.01554,0.01561 -0.04677,0.03123 -0.07011,0.03123 l -1.699025,-0.06238 -0.210416,0.210416 c -0.02342,0.01562 -0.04677,0.03115 -0.07019,0.03115"
           style="fill:#000000;fill-opacity:1;fill-rule:nonzero;stroke:none;stroke-width:0.000466835"
           id="path956-9" />
        <path
           d="m 53.976026,52.265301 c -0.02342,0 -0.04677,-0.0078 -0.07019,-0.03115 L 53.469387,51.7977 c -0.03896,-0.03896 -0.03896,-0.101343 0,-0.140303 0.03904,-0.03896 0.101344,-0.03896 0.140304,0 l 0.436448,0.436448 c 0.03896,0.03896 0.03896,0.101343 0,0.140304 -0.01561,0.02334 -0.04677,0.03115 -0.07011,0.03115"
           style="fill:#000000;fill-opacity:1;fill-rule:nonzero;stroke:none;stroke-width:0.000466835"
           id="path958-8" />
        <path
           d="m 55.347676,48.711333 c -0.374065,0 -0.685825,0.303952 -0.685825,0.685825 0,0.38195 0.303952,0.685902 0.685825,0.685902 0.38195,0 0.685903,-0.303952 0.685903,-0.685902 0,-0.381873 -0.31176,-0.685825 -0.685903,-0.685825 z m 0,1.558799 c -0.483139,0 -0.880704,-0.389758 -0.880704,-0.880704 0,-0.491024 0.389681,-0.880704 0.880704,-0.880704 0.491024,0 0.872897,0.397488 0.872897,0.888434 0,0.491023 -0.389681,0.872974 -0.872897,0.872974"
           style="fill:#000000;fill-opacity:1;fill-rule:nonzero;stroke:none;stroke-width:0.000466835"
           id="path960-6" />
        <path
           d="m 55.347676,48.228117 c -0.646865,0 -1.169041,0.522176 -1.169041,1.169041 0,0.646942 0.522176,1.169118 1.169041,1.169118 0.646942,0 1.169119,-0.522176 1.169119,-1.169118 0,-0.646865 -0.529984,-1.169041 -1.169119,-1.169041 z m 0,2.532961 c -0.748208,0 -1.36392,-0.615712 -1.36392,-1.36392 0,-0.748131 0.615712,-1.363843 1.36392,-1.363843 0.748208,0 1.36392,0.615712 1.36392,1.363843 0,0.748208 -0.615712,1.36392 -1.36392,1.36392"
           style="fill:#000000;fill-opacity:1;fill-rule:nonzero;stroke:none;stroke-width:0.000466835"
           id="path962-2" />
      </g>
    </g>
  </g>
</svg>
