<?xml version="1.0" encoding="UTF-8" standalone="no"?>
<!-- Created with Inkscape (http://www.inkscape.org/) -->

<svg
   width="78.856888mm"
   height="56.089108mm"
   viewBox="0 0 78.856888 56.089108"
   version="1.1"
   id="svg8180"
   inkscape:export-filename="makeSale.svg"
   inkscape:export-xdpi="96"
   inkscape:export-ydpi="96"
   inkscape:version="1.2.2 (732a01da63, 2022-12-09)"
   sodipodi:docname="drawing.svg"
   xmlns:inkscape="http://www.inkscape.org/namespaces/inkscape"
   xmlns:sodipodi="http://sodipodi.sourceforge.net/DTD/sodipodi-0.dtd"
   xmlns="http://www.w3.org/2000/svg"
   xmlns:svg="http://www.w3.org/2000/svg">
  <sodipodi:namedview
     id="namedview8182"
     pagecolor="#f5fbff"
     bordercolor="#000000"
     borderopacity="0.25"
     inkscape:showpageshadow="2"
     inkscape:pageopacity="0"
     inkscape:pagecheckerboard="0"
     inkscape:deskcolor="#d1d1d1"
     inkscape:document-units="mm"
     showgrid="false"
     inkscape:zoom="0.18173428"
     inkscape:cx="1815.8379"
     inkscape:cy="770.35549"
     inkscape:window-width="1366"
     inkscape:window-height="705"
     inkscape:window-x="-8"
     inkscape:window-y="-8"
     inkscape:window-maximized="1"
     inkscape:current-layer="g11475" />
  <defs
     id="defs8177" />
  <g
     inkscape:label="Layer 1"
     inkscape:groupmode="layer"
     id="layer1"
     transform="translate(-124.61113,80.990266)">
    <g
       id="g11475"
       transform="matrix(4.5636159,0,0,4.5636159,-130.34977,-7.0901489)"
       style="stroke-width:0.219125">
      <g
         id="g13157"
         transform="matrix(3.6951006,0,0,3.5043606,-360.0682,-251.04)"
         style="display:inline;stroke-width:0.060894">
        <path
           d="m 116.92105,67.1169 h -4.03719 c -0.12469,0 -0.22603,0.101265 -0.22603,0.225954 v 2.868143 c 0,0.12469 0.10134,0.22603 0.22603,0.22603 h 4.03719 c 0.12468,0 0.22603,-0.10134 0.22603,-0.22603 v -2.875873 c 0,-0.124689 -0.10135,-0.218224 -0.22603,-0.218224"
           style="display:inline;fill:#3c3b3d;fill-opacity:1;fill-rule:nonzero;stroke:none;stroke-width:0.000470722"
           id="path474-2" />
        <path
           d="m 112.95405,67.405237 h 3.89688 v 2.72784 h -3.89688 v -2.72784"
           style="display:inline;fill:#d7deed;fill-opacity:1;fill-rule:nonzero;stroke:none;stroke-width:0.000470722"
           id="path476-2" />
        <path
           d="m 112.88386,67.210435 c -0.0702,0 -0.12469,0.05458 -0.12469,0.124689 v 2.868063 c 0,0.0702 0.0545,0.12477 0.12469,0.12477 h 4.03719 c 0.0701,0 0.12468,-0.0546 0.12468,-0.12477 v -2.868063 c 0,-0.07011 -0.0546,-0.124689 -0.12468,-0.124689 z m 4.03719,3.312322 h -4.03719 c -0.17926,0 -0.31957,-0.14811 -0.31957,-0.31957 v -2.868063 c 0,-0.179341 0.14811,-0.319568 0.31957,-0.319568 h 4.03719 c 0.17918,0 0.31956,0.148034 0.31956,0.319568 v 2.868063 c 0,0.17146 -0.14811,0.31957 -0.31956,0.31957"
           style="display:inline;fill:#000000;fill-opacity:1;fill-rule:nonzero;stroke:none;stroke-width:0.000470722"
           id="path478-5" />
        <path
           d="m 113.05532,70.039537 h 3.70208 V 67.50658 h -3.70208 z m 3.79561,0.19488 h -3.89688 c -0.0546,0 -0.10134,-0.0468 -0.10134,-0.10134 v -2.72784 c 0,-0.05458 0.0467,-0.101343 0.10134,-0.101343 h 3.89688 c 0.0545,0 0.10127,0.04677 0.10127,0.101343 v 2.72784 c 0,0.0545 -0.0468,0.10134 -0.10127,0.10134"
           style="display:inline;fill:#000000;fill-opacity:1;fill-rule:nonzero;stroke:none;stroke-width:0.000470722"
           id="path480-6" />
        <path
           d="m 116.46125,69.938197 c -0.0546,0 -0.10142,-0.0468 -0.10142,-0.10134 v -2.135475 c 0,-0.0545 0.0469,-0.101266 0.10142,-0.101266 0.0545,0 0.10127,0.04677 0.10127,0.101266 v 2.143355 c 0,0.0467 -0.0468,0.0935 -0.10127,0.0935"
           style="display:inline;fill:#000000;fill-opacity:1;fill-rule:nonzero;stroke:none;stroke-width:0.000470722"
           id="path482-4" />
        <path
           d="m 116.17284,69.938197 c -0.0546,0 -0.10135,-0.0468 -0.10135,-0.10134 v -2.135475 c 0,-0.0545 0.0468,-0.101266 0.10135,-0.101266 0.0545,0 0.10134,0.04677 0.10134,0.101266 v 2.143355 c -0.008,0.0467 -0.0546,0.0935 -0.10134,0.0935"
           style="display:inline;fill:#000000;fill-opacity:1;fill-rule:nonzero;stroke:none;stroke-width:0.000470722"
           id="path484-6" />
        <path
           d="m 115.68181,69.938197 c -0.0545,0 -0.10134,-0.0468 -0.10134,-0.10134 v -2.135475 c 0,-0.0545 0.0469,-0.101266 0.10134,-0.101266 0.0546,0 0.10135,0.04677 0.10135,0.101266 v 2.143355 c 0,0.0467 -0.0468,0.0935 -0.10135,0.0935"
           style="display:inline;fill:#000000;fill-opacity:1;fill-rule:nonzero;stroke:none;stroke-width:0.000470722"
           id="path486-3" />
        <path
           d="m 115.3934,69.938197 c -0.0545,0 -0.10127,-0.0468 -0.10127,-0.10134 v -2.135475 c 0,-0.0545 0.0468,-0.101266 0.10127,-0.101266 0.0546,0 0.10142,0.04677 0.10142,0.101266 v 2.143355 c -0.008,0.0467 -0.0546,0.0935 -0.10142,0.0935"
           style="display:inline;fill:#000000;fill-opacity:1;fill-rule:nonzero;stroke:none;stroke-width:0.000470722"
           id="path488-3" />
        <path
           d="m 115.09725,69.938197 c -0.0545,0 -0.10126,-0.0468 -0.10126,-0.10134 v -2.135475 c 0,-0.0545 0.0468,-0.101266 0.10126,-0.101266 0.0546,0 0.10135,0.04677 0.10135,0.101266 v 2.143355 c 0,0.0467 -0.0468,0.0935 -0.10135,0.0935"
           style="display:inline;fill:#000000;fill-opacity:1;fill-rule:nonzero;stroke:none;stroke-width:0.000470722"
           id="path490-9" />
        <path
           d="m 114.51277,69.938197 c -0.0546,0 -0.10134,-0.0468 -0.10134,-0.10134 v -2.135475 c 0,-0.0545 0.0468,-0.101266 0.10134,-0.101266 0.0546,0 0.10127,0.04677 0.10127,0.101266 v 2.143355 c 0,0.0467 -0.0467,0.0935 -0.10127,0.0935"
           style="display:inline;fill:#000000;fill-opacity:1;fill-rule:nonzero;stroke:none;stroke-width:0.000470722"
           id="path492-7" />
        <path
           d="m 114.22436,69.938197 c -0.0546,0 -0.10127,-0.0468 -0.10127,-0.10134 v -2.135475 c 0,-0.0545 0.0467,-0.101266 0.10127,-0.101266 0.0546,0 0.10134,0.04677 0.10134,0.101266 v 2.143355 c -0.008,0.0467 -0.0545,0.0935 -0.10134,0.0935"
           style="display:inline;fill:#000000;fill-opacity:1;fill-rule:nonzero;stroke:none;stroke-width:0.000470722"
           id="path494-7" />
        <path
           d="m 113.92821,69.938197 c -0.0546,0 -0.10134,-0.0468 -0.10134,-0.10134 v -2.135475 c 0,-0.0545 0.0468,-0.101266 0.10134,-0.101266 0.0546,0 0.10135,0.04677 0.10135,0.101266 v 2.143355 c 0,0.0467 -0.0468,0.0935 -0.10135,0.0935"
           style="display:inline;fill:#000000;fill-opacity:1;fill-rule:nonzero;stroke:none;stroke-width:0.000470722"
           id="path496-9" />
        <path
           d="m 113.34373,69.938197 c -0.0546,0 -0.10134,-0.0468 -0.10134,-0.10134 v -2.135475 c 0,-0.0545 0.0467,-0.101266 0.10134,-0.101266 0.0546,0 0.10127,0.04677 0.10127,0.101266 v 2.143355 c 0,0.0467 -0.0467,0.0935 -0.10127,0.0935"
           style="display:inline;fill:#000000;fill-opacity:1;fill-rule:nonzero;stroke:none;stroke-width:0.000470722"
           id="path498-4" />
      </g>
    </g>
  </g>
</svg>
