<?xml version="1.0" encoding="UTF-8" standalone="no"?>
<!-- Created with Inkscape (http://www.inkscape.org/) -->

<svg
   width="58.071869mm"
   height="72.880226mm"
   viewBox="0 0 58.071869 72.880226"
   version="1.1"
   id="svg8180"
   inkscape:export-filename="makeSale.svg"
   inkscape:export-xdpi="96"
   inkscape:export-ydpi="96"
   inkscape:version="1.2.2 (732a01da63, 2022-12-09)"
   sodipodi:docname="drawing.svg"
   xmlns:inkscape="http://www.inkscape.org/namespaces/inkscape"
   xmlns:sodipodi="http://sodipodi.sourceforge.net/DTD/sodipodi-0.dtd"
   xmlns="http://www.w3.org/2000/svg"
   xmlns:svg="http://www.w3.org/2000/svg">
  <sodipodi:namedview
     id="namedview8182"
     pagecolor="#f5fbff"
     bordercolor="#000000"
     borderopacity="0.25"
     inkscape:showpageshadow="2"
     inkscape:pageopacity="0"
     inkscape:pagecheckerboard="0"
     inkscape:deskcolor="#d1d1d1"
     inkscape:document-units="mm"
     showgrid="false"
     inkscape:zoom="0.18173428"
     inkscape:cx="1815.8379"
     inkscape:cy="770.35549"
     inkscape:window-width="1366"
     inkscape:window-height="705"
     inkscape:window-x="-8"
     inkscape:window-y="-8"
     inkscape:window-maximized="1"
     inkscape:current-layer="g11475" />
  <defs
     id="defs8177" />
  <g
     inkscape:label="Layer 1"
     inkscape:groupmode="layer"
     id="layer1"
     transform="translate(-323.8035,75.126381)">
    <g
       id="g11475"
       transform="matrix(4.5636159,0,0,4.5636159,-130.34977,-7.0901489)"
       style="stroke-width:0.219125">
      <g
         id="g11643-1-9"
         transform="matrix(0.8095321,0,0,0.78086048,69.871332,52.060017)"
         style="display:inline;stroke-width:0.275606">
        <g
           id="g13762"
           transform="matrix(3.7191482,0,0,3.5635495,-73.25266,-323.61529)"
           style="stroke-width:0.0757052">
          <g
             id="g20695"
             transform="translate(-4.4455885,-15.571319)">
            <path
               d="m 37.915994,82.447181 h -3.610382 c -0.105898,0 -0.192508,0.08979 -0.192508,0.199576 l 0.192508,2.345616 c 0,0.109688 0.08671,0.199576 0.192603,0.199576 h 0.41395 2.406921 0.413949 c 0.105898,0 0.192603,-0.08989 0.192603,-0.199576 l 0.192508,-2.345616 c -0.01929,-0.119785 -0.105899,-0.199576 -0.202152,-0.199576"
               style="display:inline;fill:#bec3c7;fill-opacity:1;fill-rule:nonzero;stroke:none;stroke-width:0.000736061"
               id="path372-2" />
            <path
               d="m 36.529574,84.563126 c 0.09625,0 0.182864,0.07979 0.182864,0.189676 0,0.109688 -0.07687,0.189578 -0.182864,0.189578 -0.105898,0 -0.182959,-0.07989 -0.182959,-0.189578 0,-0.109885 0.07706,-0.189676 0.182959,-0.189676"
               style="display:inline;fill:#3c3b3d;fill-opacity:1;fill-rule:nonzero;stroke:none;stroke-width:0.000736061"
               id="path374-3" />
            <path
               d="m 37.800451,87.92672 c 0.05768,0 0.105803,-0.0399 0.115543,-0.09989 0,-0.0099 0,-2.525096 0,-2.525096 0,-0.06999 -0.04822,-0.119785 -0.115543,-0.119785 h -0.07706 -0.414044 -2.406826 -0.413949 -0.07697 c -0.06742,0 -0.115543,0.0498 -0.115543,0.119785 0,0 0,2.515197 0,2.525096 0.0095,0.05999 0.05768,0.09989 0.115543,0.09989 h 3.388845 v 0"
               style="display:inline;fill:#57606f;fill-opacity:1;fill-rule:nonzero;stroke:none;stroke-width:0.000736061"
               id="path376-5" />
            <path
               d="m 37.434533,86.67907 h 0.24073 v 0.24957 h -0.24073 v -0.24957"
               style="display:inline;fill:#000000;fill-opacity:1;fill-rule:nonzero;stroke:none;stroke-width:0.000736061"
               id="path378-0" />
            <path
               d="m 37.434533,86.309815 h 0.24073 v 0.249569 h -0.24073 v -0.249569"
               style="display:inline;fill:#000000;fill-opacity:1;fill-rule:nonzero;stroke:none;stroke-width:0.000736061"
               id="path380-6" />
            <path
               d="m 37.434533,85.930461 h 0.24073 v 0.24957 h -0.24073 v -0.24957"
               style="display:inline;fill:#000000;fill-opacity:1;fill-rule:nonzero;stroke:none;stroke-width:0.000736061"
               id="path382-7" />
            <path
               d="m 37.068711,86.67907 h 0.240635 v 0.24957 h -0.240635 v -0.24957"
               style="display:inline;fill:#000000;fill-opacity:1;fill-rule:nonzero;stroke:none;stroke-width:0.000736061"
               id="path384-9" />
            <path
               d="m 37.068711,86.309815 h 0.240635 v 0.249569 h -0.240635 v -0.249569"
               style="display:inline;fill:#000000;fill-opacity:1;fill-rule:nonzero;stroke:none;stroke-width:0.000736061"
               id="path386-9" />
            <path
               d="m 37.068711,85.930461 h 0.240635 v 0.24957 h -0.240635 v -0.24957"
               style="display:inline;fill:#000000;fill-opacity:1;fill-rule:nonzero;stroke:none;stroke-width:0.000736061"
               id="path388-1" />
            <path
               d="m 36.712438,86.67907 h 0.24073 v 0.24957 h -0.24073 v -0.24957"
               style="display:inline;fill:#000000;fill-opacity:1;fill-rule:nonzero;stroke:none;stroke-width:0.000736061"
               id="path390-6" />
            <path
               d="m 36.712438,86.309815 h 0.24073 v 0.249569 h -0.24073 v -0.249569"
               style="display:inline;fill:#000000;fill-opacity:1;fill-rule:nonzero;stroke:none;stroke-width:0.000736061"
               id="path392-2" />
            <path
               d="m 36.712438,85.930461 h 0.24073 v 0.24957 h -0.24073 v -0.24957"
               style="display:inline;fill:#000000;fill-opacity:1;fill-rule:nonzero;stroke:none;stroke-width:0.000736061"
               id="path394-6" />
            <path
               d="m 35.383885,83.435262 v -0.369256 h 1.569283 l -0.365822,1.117865 h -1.203461 v -0.369355 -0.379254"
               style="display:inline;fill:#febe76;fill-opacity:1;fill-rule:nonzero;stroke:none;stroke-width:0.000736061"
               id="path396-9" />
            <path
               d="m 35.509073,87.42768 h 1.203365 v 0.49904 h -1.203365 v -0.49904"
               style="display:inline;fill:#afb9d2;fill-opacity:1;fill-rule:nonzero;stroke:none;stroke-width:0.000736061"
               id="path398-5" />
            <path
               d="m 35.268342,86.67907 h 1.328648 v 0.24957 h -1.328648 v -0.24957"
               style="display:inline;fill:#000000;fill-opacity:1;fill-rule:nonzero;stroke:none;stroke-width:0.000736061"
               id="path400-0" />
            <path
               d="m 36.346615,86.309815 h 0.240731 v 0.249569 h -0.240731 v -0.249569"
               style="display:inline;fill:#000000;fill-opacity:1;fill-rule:nonzero;stroke:none;stroke-width:0.000736061"
               id="path402-4" />
            <path
               d="m 36.346615,85.930461 h 0.240731 v 0.24957 h -0.240731 v -0.24957"
               style="display:inline;fill:#000000;fill-opacity:1;fill-rule:nonzero;stroke:none;stroke-width:0.000736061"
               id="path404-7" />
            <path
               d="m 35.990438,86.309815 h 0.240635 v 0.249569 h -0.240635 v -0.249569"
               style="display:inline;fill:#000000;fill-opacity:1;fill-rule:nonzero;stroke:none;stroke-width:0.000736061"
               id="path406-1" />
            <path
               d="m 35.990438,85.930461 h 0.240635 v 0.24957 h -0.240635 v -0.24957"
               style="display:inline;fill:#000000;fill-opacity:1;fill-rule:nonzero;stroke:none;stroke-width:0.000736061"
               id="path408-6" />
            <path
               d="m 35.624616,86.309815 h 0.240634 v 0.249569 h -0.240634 v -0.249569"
               style="display:inline;fill:#000000;fill-opacity:1;fill-rule:nonzero;stroke:none;stroke-width:0.000736061"
               id="path410-8" />
            <path
               d="m 35.624616,85.930461 h 0.240634 v 0.24957 h -0.240634 v -0.24957"
               style="display:inline;fill:#000000;fill-opacity:1;fill-rule:nonzero;stroke:none;stroke-width:0.000736061"
               id="path412-2" />
            <path
               d="m 35.682387,84.563126 c 0.09625,0 0.182863,0.07979 0.182863,0.189676 0,0.109688 -0.07697,0.189578 -0.182863,0.189578 -0.105898,0 -0.182959,-0.07989 -0.182959,-0.189578 0,-0.109885 0.08671,-0.189676 0.182959,-0.189676"
               style="display:inline;fill:#3c3b3d;fill-opacity:1;fill-rule:nonzero;stroke:none;stroke-width:0.000736061"
               id="path414-5" />
            <path
               d="m 35.268342,86.309815 h 0.240731 v 0.249569 h -0.240731 v -0.249569"
               style="display:inline;fill:#000000;fill-opacity:1;fill-rule:nonzero;stroke:none;stroke-width:0.000736061"
               id="path416-0" />
            <path
               d="m 35.268342,85.930461 h 0.240731 v 0.24957 h -0.240731 v -0.24957"
               style="display:inline;fill:#000000;fill-opacity:1;fill-rule:nonzero;stroke:none;stroke-width:0.000736061"
               id="path418-2" />
            <path
               d="m 34.90252,86.67907 h 0.24073 v 0.24957 h -0.24073 v -0.24957"
               style="display:inline;fill:#000000;fill-opacity:1;fill-rule:nonzero;stroke:none;stroke-width:0.000736061"
               id="path420-2" />
            <path
               d="m 34.90252,86.309815 h 0.24073 v 0.249569 h -0.24073 v -0.249569"
               style="display:inline;fill:#000000;fill-opacity:1;fill-rule:nonzero;stroke:none;stroke-width:0.000736061"
               id="path422-1" />
            <path
               d="m 34.90252,85.930461 h 0.24073 v 0.24957 h -0.24073 v -0.24957"
               style="display:inline;fill:#000000;fill-opacity:1;fill-rule:nonzero;stroke:none;stroke-width:0.000736061"
               id="path424-8" />
            <path
               d="m 34.546342,86.67907 h 0.240635 v 0.24957 h -0.240635 v -0.24957"
               style="display:inline;fill:#000000;fill-opacity:1;fill-rule:nonzero;stroke:none;stroke-width:0.000736061"
               id="path426-9" />
            <path
               d="m 34.546342,86.309815 h 0.240635 v 0.249569 h -0.240635 v -0.249569"
               style="display:inline;fill:#000000;fill-opacity:1;fill-rule:nonzero;stroke:none;stroke-width:0.000736061"
               id="path428-9" />
            <path
               d="m 34.546342,85.930461 h 0.240635 v 0.24957 h -0.240635 v -0.24957"
               style="display:inline;fill:#000000;fill-opacity:1;fill-rule:nonzero;stroke:none;stroke-width:0.000736061"
               id="path430-9" />
            <path
               d="m 37.800451,88.056504 h -3.388845 c -0.115543,0 -0.211892,-0.08989 -0.231086,-0.199676 0,-0.0099 0,-0.0199 0,-2.545192 0,-0.129685 0.105803,-0.239472 0.231086,-0.239472 h 0.07697 c 0.06732,0 0.125187,0.05989 0.125187,0.129784 0,0.06979 -0.05787,0.129685 -0.125187,0.129685 h -0.06742 c 0,0.808403 0,2.295623 0,2.495199 h 3.369556 c 0,-0.199576 0,-1.686796 0,-2.495199 h -0.06732 c -0.06742,0 -0.125092,-0.05989 -0.125092,-0.129685 0,-0.06989 0.05768,-0.129784 0.125092,-0.129784 h 0.07706 c 0.125187,0 0.23099,0.109787 0.23099,0.239472 0,2.525294 0,2.535293 0,2.545192 -0.01919,0.109787 -0.115447,0.199676 -0.23099,0.199676"
               style="display:inline;fill:#000000;fill-opacity:1;fill-rule:nonzero;stroke:none;stroke-width:0.000736061"
               id="path432-2" />
            <path
               d="m 34.228647,82.636858 0.192508,2.335419 v 0.01 c 0,0.0399 0.02893,0.06989 0.06742,0.06989 h 3.234819 c 0.03858,0 0.06732,-0.03 0.06732,-0.06989 v -0.01 l 0.192603,-2.335419 c 0,-0.04 -0.02884,-0.06989 -0.06732,-0.06989 h -3.610382 c -0.03848,0 -0.06742,0.0299 -0.07697,0.06989 z m 3.494743,2.674778 h -3.234819 c -0.173314,0 -0.308051,-0.139684 -0.308051,-0.319263 l -0.192603,-2.345616 v -0.0099 c 0,-0.179778 0.134736,-0.319461 0.308146,-0.319461 h 3.610191 c 0.173409,0 0.308146,0.139683 0.308146,0.319461 v 0.0099 l -0.192604,2.345616 c 0.0096,0.169581 -0.134736,0.319263 -0.298406,0.319263"
               style="display:inline;fill:#000000;fill-opacity:1;fill-rule:nonzero;stroke:none;stroke-width:0.000736061"
               id="path434-1" />
            <path
               d="m 37.309346,85.431421 c -0.06732,0 -0.125092,-0.05979 -0.125092,-0.129685 v -0.249569 c 0,-0.06989 0.05777,-0.129784 0.125092,-0.129784 0.06742,0 0.125187,0.05989 0.125187,0.129784 v 0.249569 c 0,0.06989 -0.05777,0.129685 -0.125187,0.129685"
               style="display:inline;fill:#000000;fill-opacity:1;fill-rule:nonzero;stroke:none;stroke-width:0.000736061"
               id="path436-7" />
            <path
               d="m 34.90252,85.431421 c -0.06742,0 -0.125092,-0.05979 -0.125092,-0.129685 v -0.249569 c 0,-0.06989 0.05768,-0.129784 0.125092,-0.129784 0.06742,0 0.125188,0.05989 0.125188,0.129784 v 0.249569 c 0,0.06989 -0.05777,0.129685 -0.125188,0.129685"
               style="display:inline;fill:#000000;fill-opacity:1;fill-rule:nonzero;stroke:none;stroke-width:0.000736061"
               id="path438-2" />
            <path
               d="m 36.712438,88.056504 c -0.06732,0 -0.125092,-0.05999 -0.125092,-0.129784 v -0.379354 h -0.96273 v 0.379354 c 0,0.06979 -0.05777,0.129784 -0.125188,0.129784 -0.06742,0 -0.125092,-0.05999 -0.125092,-0.129784 v -0.49904 c 0,-0.06989 0.05768,-0.129685 0.125092,-0.129685 h 1.203461 c 0.06742,0 0.125091,0.05979 0.125091,0.129685 v 0.49904 c 0,0.06979 -0.05767,0.129784 -0.115542,0.129784"
               style="display:inline;fill:#000000;fill-opacity:1;fill-rule:nonzero;stroke:none;stroke-width:0.000736061"
               id="path440-6" />
            <path
               d="m 36.587346,84.313556 c -0.0096,0 -0.02884,0 -0.03848,-0.0099 -0.06742,-0.02 -0.09625,-0.08989 -0.07706,-0.15978 l 0.308051,-0.958086 h -1.270781 v 0.99808 c 0,0.06989 -0.05777,0.129685 -0.125188,0.129685 -0.06742,0 -0.125092,-0.05979 -0.125092,-0.129685 v -1.117865 c 0,-0.06989 0.05768,-0.129784 0.125092,-0.129784 h 1.569283 c 0.03848,0 0.07706,0.0199 0.09635,0.04989 0.01919,0.03 0.02884,0.06989 0.01919,0.109787 l -0.365822,1.127864 c -0.01919,0.04989 -0.06742,0.08979 -0.115543,0.08979"
               style="display:inline;fill:#000000;fill-opacity:1;fill-rule:nonzero;stroke:none;stroke-width:0.000736061"
               id="path442-1" />
            <path
               d="m 35.383885,83.185791 c -0.01919,0 -0.04813,-0.01 -0.06742,-0.0201 l -0.365822,-0.24947 c -0.05768,-0.0399 -0.06732,-0.119687 -0.02884,-0.16968 0.03848,-0.05979 0.115448,-0.06979 0.16367,-0.0299 l 0.365822,0.249569 c 0.05777,0.0399 0.06732,0.119785 0.02884,0.169679 -0.01919,0.0298 -0.05768,0.04989 -0.09625,0.04989"
               style="display:inline;fill:#000000;fill-opacity:1;fill-rule:nonzero;stroke:none;stroke-width:0.000736061"
               id="path444-1" />
            <path
               d="m 35.682387,84.682911 c -0.02884,0 -0.05777,0.0299 -0.05777,0.05989 0,0.0299 0.02893,0.05989 0.05777,0.05989 0.02884,0 0.05777,-0.02999 0.05777,-0.05989 0.0095,-0.03 -0.01919,-0.05989 -0.05777,-0.05989 z m 0,0.379254 c -0.163765,0 -0.298502,-0.139782 -0.298502,-0.309363 0,-0.169679 0.134737,-0.309462 0.298502,-0.309462 0.16367,0 0.298406,0.139783 0.298406,0.309462 0,0.169581 -0.134736,0.309363 -0.298406,0.309363"
               style="display:inline;fill:#000000;fill-opacity:1;fill-rule:nonzero;stroke:none;stroke-width:0.000736061"
               id="path446-3" />
            <path
               d="m 36.529574,84.682911 c -0.02884,0 -0.05777,0.0299 -0.05777,0.05989 0,0.0299 0.02893,0.05989 0.05777,0.05989 0.02893,0 0.05777,-0.02 0.05777,-0.05989 0,-0.03 -0.02884,-0.05989 -0.05777,-0.05989 z m 0,0.379254 c -0.163574,0 -0.298501,-0.139782 -0.298501,-0.309363 0,-0.169679 0.134927,-0.309462 0.298501,-0.309462 0.16367,0 0.298406,0.139783 0.298406,0.309462 0,0.169581 -0.134736,0.309363 -0.298406,0.309363"
               style="display:inline;fill:#000000;fill-opacity:1;fill-rule:nonzero;stroke:none;stroke-width:0.000736061"
               id="path448-3" />
            <path
               d="m 36.953168,84.682911 h -1.626959 c -0.07706,0 -0.154025,-0.03 -0.211892,-0.08989 -0.05768,-0.05979 -0.08661,-0.139683 -0.08661,-0.219474 0,-0.16968 0.134831,-0.309462 0.298501,-0.309462 h 1.626959 c 0.06742,0 0.125187,0.05989 0.125187,0.129685 0,0.06989 -0.05777,0.129784 -0.125187,0.129784 h -1.626959 c -0.02893,0 -0.05787,0.0299 -0.05787,0.05989 0,0.0199 0.0096,0.0399 0.01938,0.0399 0.0095,0.01 0.01919,0.02 0.03848,0.02 h 1.626959 c 0.06742,0 0.125187,0.05989 0.125187,0.129784 -0.0096,0.04989 -0.06742,0.109787 -0.125187,0.109787"
               style="display:inline;fill:#000000;fill-opacity:1;fill-rule:nonzero;stroke:none;stroke-width:0.000736061"
               id="path450-3" />
            <path
               d="m 36.231073,83.565046 h -0.847188 c -0.06742,0 -0.125092,-0.05989 -0.125092,-0.129784 0,-0.06989 0.05768,-0.129784 0.125092,-0.129784 h 0.847188 c 0.06742,0 0.125187,0.05989 0.125187,0.129784 -0.0096,0.06989 -0.06732,0.129784 -0.125187,0.129784"
               style="display:inline;fill:#000000;fill-opacity:1;fill-rule:nonzero;stroke:none;stroke-width:0.000736061"
               id="path452-0" />
            <path
               d="m 36.231073,83.934302 h -0.847188 c -0.06742,0 -0.125092,-0.05979 -0.125092,-0.129784 0,-0.06989 0.05768,-0.129685 0.125092,-0.129685 h 0.847188 c 0.06742,0 0.125187,0.05979 0.125187,0.129685 -0.0096,0.06999 -0.06732,0.129784 -0.125187,0.129784"
               style="display:inline;fill:#000000;fill-opacity:1;fill-rule:nonzero;stroke:none;stroke-width:0.000736061"
               id="path454-1" />
          </g>
        </g>
      </g>
    </g>
  </g>
</svg>
