<?xml version="1.0" encoding="UTF-8" standalone="no"?>
<!-- Created with Inkscape (http://www.inkscape.org/) -->

<svg
   width="70.313721mm"
   height="67.774223mm"
   viewBox="0 0 70.313721 67.774223"
   version="1.1"
   id="svg8180"
   inkscape:export-filename="makeSale.svg"
   inkscape:export-xdpi="96"
   inkscape:export-ydpi="96"
   inkscape:version="1.2.2 (732a01da63, 2022-12-09)"
   sodipodi:docname="drawing.svg"
   xmlns:inkscape="http://www.inkscape.org/namespaces/inkscape"
   xmlns:sodipodi="http://sodipodi.sourceforge.net/DTD/sodipodi-0.dtd"
   xmlns="http://www.w3.org/2000/svg"
   xmlns:svg="http://www.w3.org/2000/svg">
  <sodipodi:namedview
     id="namedview8182"
     pagecolor="#f5fbff"
     bordercolor="#000000"
     borderopacity="0.25"
     inkscape:showpageshadow="2"
     inkscape:pageopacity="0"
     inkscape:pagecheckerboard="0"
     inkscape:deskcolor="#d1d1d1"
     inkscape:document-units="mm"
     showgrid="false"
     inkscape:zoom="0.18173428"
     inkscape:cx="1815.8379"
     inkscape:cy="770.35549"
     inkscape:window-width="1366"
     inkscape:window-height="705"
     inkscape:window-x="-8"
     inkscape:window-y="-8"
     inkscape:window-maximized="1"
     inkscape:current-layer="g11475" />
  <defs
     id="defs8177" />
  <g
     inkscape:label="Layer 1"
     inkscape:groupmode="layer"
     id="layer1"
     transform="translate(-21.835789,70.990006)">
    <g
       id="g11475"
       transform="matrix(4.5636159,0,0,4.5636159,-130.34977,-7.0901489)"
       style="stroke-width:0.219125">
      <g
         id="g11643-1-9"
         transform="matrix(0.8095321,0,0,0.78086048,69.871332,52.060017)"
         style="display:inline;stroke-width:0.275606">
        <g
           id="g13294"
           transform="matrix(3.6356355,0,0,3.5043588,-126.68348,-244.01445)"
           style="display:inline;stroke-width:0.0772137">
          <g
             id="g21075"
             transform="translate(0.77463449,-15.678623)">
            <path
               d="m 26.580231,63.21218 -0.49101,-0.509039 0.08671,-0.08989 c 0.192508,-0.199576 0.192508,-0.509039 0,-0.708615 -0.09625,-0.09979 -0.221441,-0.149682 -0.336984,-0.149682 -0.125092,0 -0.250279,0.04989 -0.336984,0.149682 l -0.08661,0.08989 -0.491009,-0.509138 c -0.105899,-0.109688 -0.279213,-0.109688 -0.385112,0 l -2.676489,2.794762 c -0.105803,0.109688 -0.105803,0.289465 0,0.399153 l 0.491105,0.509137 -0.08671,0.08979 c -0.192507,0.199576 -0.192507,0.508939 0,0.708614 0.09625,0.09989 0.221442,0.149782 0.336985,0.149782 0.125187,0 0.250279,-0.04989 0.336888,-0.149782 l 0.08671,-0.08979 0.49101,0.508939 c 0.105898,0.109886 0.279213,0.109886 0.385111,0 l 2.676394,-2.774665 c 0.105898,-0.129784 0.105898,-0.309363 0,-0.41915"
               style="display:inline;fill:#313a52;fill-opacity:1;fill-rule:nonzero;stroke:none;stroke-width:0.000750727"
               id="path502-6" />
            <path
               d="m 24.731735,62.004426 -2.377892,2.465303 1.357391,1.417328 2.387632,-2.475301 -1.367131,-1.40733"
               style="display:inline;fill:#d7deed;fill-opacity:1;fill-rule:nonzero;stroke:none;stroke-width:0.000750727"
               id="path504-5" />
            <path
               d="m 23.027716,65.757372 c 0.02884,0 0.05777,0.0099 0.08661,0.0399 l 0.491009,0.509038 c 0.02893,0.0299 0.06742,0.0498 0.105899,0.0498 0.03858,0 0.07706,-0.0199 0.105898,-0.0498 l 2.676489,-2.774764 c 0.02884,-0.03 0.04813,-0.06989 0.04813,-0.109787 0,-0.0399 -0.01929,-0.07989 -0.04813,-0.109886 L 26.002612,62.80293 c -0.04813,-0.04989 -0.04813,-0.129784 0,-0.179678 l 0.08661,-0.08979 c 0.144477,-0.149781 0.144477,-0.379353 0,-0.529036 -0.06732,-0.06989 -0.154025,-0.109786 -0.259924,-0.109786 -0.09625,0 -0.182863,0.0399 -0.259923,0.109786 l -0.08661,0.08989 c -0.01929,0.0199 -0.05777,0.0399 -0.08671,0.0399 v 0 c -0.02884,0 -0.05777,-0.01 -0.08661,-0.0399 l -0.49101,-0.509039 c -0.02893,-0.02999 -0.06742,-0.04999 -0.105898,-0.04999 -0.03858,0 -0.07706,0.02 -0.105899,0.04999 l -2.6572,2.774666 c -0.05777,0.05989 -0.05777,0.15978 0,0.219573 l 0.49101,0.509039 c 0.01919,0.02 0.03848,0.05989 0.03848,0.08989 0,0.0299 -0.0095,0.05979 -0.03848,0.08979 l -0.08661,0.08979 c -0.144476,0.149781 -0.144476,0.379254 0,0.529035 0.06732,0.06989 0.154026,0.109787 0.259924,0.109787 0.09625,0 0.182863,-0.0399 0.259924,-0.109787 l 0.08661,-0.08979 c 0.0096,-0.02 0.03848,-0.0399 0.06742,-0.0399 z m 0.683518,0.8383 c -0.105899,0 -0.202153,-0.0399 -0.279118,-0.119785 l -0.4044,-0.41915 c -0.115543,0.119785 -0.269568,0.179579 -0.423593,0.179579 -0.16367,0 -0.308051,-0.06979 -0.423594,-0.179579 -0.231086,-0.239571 -0.231086,-0.638823 0,-0.878295 l -0.4044,-0.419248 c -0.154026,-0.159681 -0.154026,-0.419249 0,-0.57893 l 2.676489,-2.774666 c 0.07697,-0.07989 0.173219,-0.119785 0.279117,-0.119785 0.105994,0 0.202248,0.0399 0.279213,0.119785 l 0.4044,0.41915 c 0.115543,-0.119785 0.259924,-0.179579 0.423594,-0.179579 0.16367,0 0.308051,0.05979 0.423594,0.179579 0.231085,0.239571 0.231085,0.638823 0,0.878393 l 0.4044,0.41915 c 0.07696,0.07989 0.115447,0.179678 0.115447,0.289465 0,0.109787 -0.03848,0.209575 -0.115447,0.289465 l -2.67649,2.784664 c -0.07696,0.06989 -0.173314,0.109787 -0.279212,0.109787"
               style="display:inline;fill:#000000;fill-opacity:1;fill-rule:nonzero;stroke:none;stroke-width:0.000750727"
               id="path506-5" />
            <path
               d="m 22.517418,64.469729 1.193816,1.23765 2.214317,-2.295623 -1.193816,-1.227652 z m 1.193816,1.537114 c -0.02884,0 -0.05777,-0.01 -0.08661,-0.0399 l -1.357486,-1.40733 c -0.01919,-0.02 -0.03848,-0.05989 -0.03848,-0.08989 0,-0.0299 0.0096,-0.05989 0.03848,-0.08979 l 2.377988,-2.465302 c 0.04813,-0.04999 0.125187,-0.04999 0.173314,0 l 1.357486,1.40733 c 0.01929,0.0199 0.03848,0.05989 0.03848,0.08979 0,0.0299 -0.0096,0.05989 -0.03848,0.08979 l -2.377987,2.475301 c -0.01929,0.02 -0.05777,0.03 -0.08671,0.03"
               style="display:inline;fill:#000000;fill-opacity:1;fill-rule:nonzero;stroke:none;stroke-width:0.000750727"
               id="path508-8" />
            <path
               d="m 24.134827,64.858982 c -0.06732,0 -0.125092,-0.05989 -0.125092,-0.129685 v -1.397332 c 0,-0.06989 0.05777,-0.129784 0.125092,-0.129784 0.06742,0 0.125188,0.05989 0.125188,0.129784 v 1.407231 c 0,0.06989 -0.05777,0.119786 -0.125188,0.119786"
               style="display:inline;fill:#000000;fill-opacity:1;fill-rule:nonzero;stroke:none;stroke-width:0.000750727"
               id="path510-5" />
            <path
               d="m 24.568161,64.190361 c -0.06742,0 -0.125187,-0.02999 -0.173314,-0.06999 -0.09635,-0.09969 -0.09635,-0.259469 0,-0.349259 0.04813,-0.04999 0.105898,-0.06989 0.173314,-0.06989 0.06732,0 0.125092,0.03 0.173219,0.06989 0.09635,0.09979 0.09635,0.25947 0,0.349259 -0.05777,0.04989 -0.115543,0.06999 -0.173219,0.06999"
               style="display:inline;fill:#000000;fill-opacity:1;fill-rule:nonzero;stroke:none;stroke-width:0.000750727"
               id="path512-4" />
            <path
               d="m 23.711234,64.36994 c -0.06732,0 -0.125092,-0.02999 -0.173315,-0.06989 -0.04803,-0.04989 -0.06732,-0.109688 -0.06732,-0.179678 0,-0.06989 0.02884,-0.129685 0.06732,-0.179579 0.04822,-0.04999 0.105994,-0.06989 0.173315,-0.06989 0.06742,0 0.125187,0.03 0.173314,0.06989 0.04813,0.04989 0.06742,0.109688 0.06742,0.179579 0,0.06999 -0.02884,0.129784 -0.06742,0.179678 -0.04813,0.04999 -0.105898,0.06989 -0.173314,0.06989"
               style="display:inline;fill:#000000;fill-opacity:1;fill-rule:nonzero;stroke:none;stroke-width:0.000750727"
               id="path514-2" />
            <path
               d="m 25.925551,62.30389 c -0.02884,0 -0.05777,-0.01 -0.08661,-0.0399 -0.04813,-0.04989 -0.04813,-0.129784 0,-0.179678 l 0.847187,-0.878393 c 0.04822,-0.04989 0.125188,-0.04989 0.173315,0 0.04822,0.04999 0.04822,0.129883 0,0.179678 l -0.847188,0.878393 c -0.02893,0.0299 -0.05777,0.0399 -0.0867,0.0399"
               style="display:inline;fill:#000000;fill-opacity:1;fill-rule:nonzero;stroke:none;stroke-width:0.000750727"
               id="path516-4" />
          </g>
        </g>
      </g>
    </g>
  </g>
</svg>
