<?xml version="1.0" encoding="UTF-8" standalone="no"?>
<!-- Created with Inkscape (http://www.inkscape.org/) -->

<svg
   width="73.059814mm"
   height="74.654137mm"
   viewBox="0 0 73.059814 74.654137"
   version="1.1"
   id="svg8180"
   inkscape:export-filename="makeSale.svg"
   inkscape:export-xdpi="96"
   inkscape:export-ydpi="96"
   inkscape:version="1.2.2 (732a01da63, 2022-12-09)"
   sodipodi:docname="drawing.svg"
   xmlns:inkscape="http://www.inkscape.org/namespaces/inkscape"
   xmlns:sodipodi="http://sodipodi.sourceforge.net/DTD/sodipodi-0.dtd"
   xmlns="http://www.w3.org/2000/svg"
   xmlns:svg="http://www.w3.org/2000/svg">
  <sodipodi:namedview
     id="namedview8182"
     pagecolor="#f5fbff"
     bordercolor="#000000"
     borderopacity="0.25"
     inkscape:showpageshadow="2"
     inkscape:pageopacity="0"
     inkscape:pagecheckerboard="0"
     inkscape:deskcolor="#d1d1d1"
     inkscape:document-units="mm"
     showgrid="false"
     inkscape:zoom="0.18173428"
     inkscape:cx="1815.8379"
     inkscape:cy="770.35549"
     inkscape:window-width="1366"
     inkscape:window-height="705"
     inkscape:window-x="-8"
     inkscape:window-y="-8"
     inkscape:window-maximized="1"
     inkscape:current-layer="g11475" />
  <defs
     id="defs8177" />
  <g
     inkscape:label="Layer 1"
     inkscape:groupmode="layer"
     id="layer1"
     transform="translate(-396.6352,81.863366)">
    <g
       id="g11475"
       transform="matrix(4.5636159,0,0,4.5636159,-130.34977,-7.0901489)"
       style="stroke-width:0.219125">
      <g
         id="g13835"
         transform="matrix(3.6944335,0,0,3.5635494,-38.830272,-102.87705)"
         style="stroke-width:0.0603916">
        <g
           id="g20762"
           transform="translate(-3.4945545,-12.930213)">
          <path
             d="m 48.48046,39.157843 v 1.169041 l 0.02334,0.02342 -0.366335,0.366258 c 0.01561,-0.03888 0.02342,-0.07784 0.01561,-0.124689 -0.0078,-0.0623 -0.03115,-0.116881 -0.07792,-0.155841 -0.03896,-0.03896 -0.09354,-0.07019 -0.155919,-0.07019 l -1.496339,-0.163649 0.0077,-0.07011 v -0.584559 -1.36392 h 0.38968 1.270384 0.389758 v 0.974239"
             style="fill:#57606f;fill-opacity:1;fill-rule:nonzero;stroke:none;stroke-width:0.000466839"
             id="path776-3" />
          <path
             d="m 48.13747,40.716565 0.366335,-0.366258 0.529984,-0.529984 c 0.05458,-0.05457 0.124689,-0.07792 0.194879,-0.07792 0.07011,0 0.140226,0.02335 0.194802,0.07792 0.109073,0.109073 0.109073,0.288337 0,0.397488 l -1.293807,1.301537 -1.737986,-0.0623 -0.241569,0.241646 -0.779438,-0.779438 0.748285,-0.748208 0.31949,0.03115 1.496416,0.163649 c 0.06238,0.0078 0.116958,0.03123 0.155841,0.07019 0.03896,0.03896 0.07019,0.09354 0.078,0.155841 -0.01562,0.04685 -0.02342,0.08581 -0.03123,0.124689"
             style="fill:#ffd8a8;fill-opacity:1;fill-rule:nonzero;stroke:none;stroke-width:0.000466839"
             id="path778-3" />
          <path
             d="m 45.495436,40.911444 0.639057,0.639134 0.179264,-0.179341 c 0.01562,-0.01554 0.04677,-0.03115 0.07011,-0.03115 l 1.706832,0.078 1.262655,-1.270461 c 0.03115,-0.03115 0.05457,-0.07792 0.05457,-0.132419 0,-0.04677 -0.01561,-0.09354 -0.05457,-0.132573 -0.03123,-0.03115 -0.07792,-0.0545 -0.132496,-0.0545 -0.04677,0 -0.09354,0.01554 -0.132496,0.0545 l -0.872897,0.888588 c -0.06238,0.132419 -0.194879,0.21034 -0.335182,0.202609 l -0.997585,-0.04677 c -0.05457,0 -0.09354,-0.04677 -0.09354,-0.101344 0,-0.0545 0.04677,-0.09354 0.101343,-0.09354 l 0.997585,0.04677 c 0.06238,0 0.116959,-0.02342 0.140304,-0.07792 0,-0.01562 0.0078,-0.03115 0.01561,-0.03904 0.0078,-0.01554 0.0078,-0.03888 0.0078,-0.06231 -0.0078,-0.03896 -0.02342,-0.07011 -0.04677,-0.09354 -0.02342,-0.02334 -0.06238,-0.03896 -0.101344,-0.04677 v 0 l -1.769215,-0.194801 z m 0.646864,0.880704 c -0.02334,0 -0.04677,-0.0078 -0.07011,-0.03123 l -0.779438,-0.77936 c -0.01554,-0.01554 -0.03115,-0.04669 -0.03115,-0.07011 0,-0.02342 0.0078,-0.04677 0.03115,-0.07011 L 46.04096,40.09313 c 0.02342,-0.02342 0.04677,-0.03115 0.078,-0.03115 l 1.808099,0.194801 c 0.078,0.0078 0.155918,0.03896 0.218224,0.101343 0.03896,0.03115 0.06238,0.07792 0.07792,0.116881 l 0.732671,-0.732593 c 0.07011,-0.07019 0.163648,-0.10915 0.264992,-0.10915 0.101265,0 0.194801,0.03896 0.264914,0.10915 0.07019,0.07011 0.109151,0.163649 0.109151,0.264992 0,0.101266 -0.03896,0.194802 -0.109151,0.264915 l -1.293729,1.309422 c -0.01561,0.01554 -0.04677,0.03115 -0.07011,0.03115 l -1.699025,-0.06231 -0.218224,0.218224 c -0.01561,0.01554 -0.03896,0.02335 -0.06238,0.02335"
             style="fill:#000000;fill-opacity:1;fill-rule:nonzero;stroke:none;stroke-width:0.000466839"
             id="path780-5" />
          <path
             d="m 46.38387,41.550578 c -0.02335,0 -0.04677,-0.0078 -0.07011,-0.03123 L 45.877311,41.0829 c -0.03896,-0.03896 -0.03896,-0.101343 0,-0.140304 0.03896,-0.03896 0.101344,-0.03896 0.140304,0 l 0.436448,0.436526 c 0.03896,0.03896 0.03896,0.101266 0,0.140226 -0.01561,0.01554 -0.04677,0.03123 -0.07019,0.03123"
             style="fill:#000000;fill-opacity:1;fill-rule:nonzero;stroke:none;stroke-width:0.000466839"
             id="path782-1" />
          <path
             d="m 48.48046,40.428228 c -0.05457,0 -0.101343,-0.04669 -0.101343,-0.101344 v -2.041937 h -1.847136 v 1.854943 c 0,0.05458 -0.04677,0.101266 -0.101343,0.101266 -0.0545,0 -0.101266,-0.04669 -0.101266,-0.101266 v -1.948479 c 0,-0.05457 0.04677,-0.101343 0.101266,-0.101343 h 2.049822 c 0.05457,0 0.101266,0.04677 0.101266,0.101343 v 2.135473 c -0.0078,0.05465 -0.05457,0.101344 -0.101266,0.101344"
             style="fill:#000000;fill-opacity:1;fill-rule:nonzero;stroke:none;stroke-width:0.000466839"
             id="path784-9" />
          <path
             d="m 48.090702,38.573284 c -0.0545,0 -0.101266,-0.04677 -0.101266,-0.101266 v -0.537791 c 0,-0.140304 -0.05457,-0.280607 -0.155918,-0.381873 -0.101266,-0.101343 -0.233762,-0.155919 -0.381873,-0.155919 -0.296145,0 -0.537791,0.241647 -0.537791,0.537792 v 0.537791 c 0,0.0545 -0.04677,0.101266 -0.101266,0.101266 -0.05458,0 -0.101343,-0.04677 -0.101343,-0.101266 v -0.537791 c 0,-0.405296 0.327374,-0.732593 0.732593,-0.732593 0.194878,0 0.38195,0.07792 0.514446,0.210416 0.140226,0.140304 0.210416,0.319568 0.210416,0.514369 v 0.537792 c 0.01554,0.0623 -0.03123,0.109073 -0.078,0.109073"
             style="fill:#000000;fill-opacity:1;fill-rule:nonzero;stroke:none;stroke-width:0.000466839"
             id="path786-8" />
          <path
             d="m 47.209998,39.648867 h -0.77936 c -0.0545,0 -0.101266,-0.04677 -0.101266,-0.101343 0,-0.05458 0.04677,-0.101344 0.101266,-0.101344 h 0.77936 c 0.05458,0 0.101344,0.04677 0.101344,0.101344 0,0.05457 -0.04677,0.101343 -0.101344,0.101343"
             style="fill:#000000;fill-opacity:1;fill-rule:nonzero;stroke:none;stroke-width:0.000466839"
             id="path788-6" />
          <path
             d="m 48.48046,39.259186 h -0.779438 c -0.0545,0 -0.101266,-0.04677 -0.101266,-0.101343 0,-0.05457 0.04677,-0.101343 0.101266,-0.101343 h 0.779438 c 0.05457,0 0.101266,0.04677 0.101266,0.101343 -0.0078,0.05458 -0.05457,0.101343 -0.101266,0.101343"
             style="fill:#000000;fill-opacity:1;fill-rule:nonzero;stroke:none;stroke-width:0.000466839"
             id="path790-4" />
        </g>
      </g>
    </g>
  </g>
</svg>
