<?xml version="1.0" encoding="UTF-8" standalone="no"?>
<!-- Created with Inkscape (http://www.inkscape.org/) -->

<svg
   version="1.1"
   id="svg2"
   width="58.831112"
   height="77.027985"
   viewBox="0 0 58.831114 77.027985"
   sodipodi:docname="258087721500.eps"
   xmlns:inkscape="http://www.inkscape.org/namespaces/inkscape"
   xmlns:sodipodi="http://sodipodi.sourceforge.net/DTD/sodipodi-0.dtd"
   xmlns="http://www.w3.org/2000/svg"
   xmlns:svg="http://www.w3.org/2000/svg">
  <defs
     id="defs6" />
  <sodipodi:namedview
     id="namedview4"
     pagecolor="#ffffff"
     bordercolor="#000000"
     borderopacity="0.25"
     inkscape:showpageshadow="2"
     inkscape:pageopacity="0.0"
     inkscape:pagecheckerboard="0"
     inkscape:deskcolor="#d1d1d1"
     showgrid="false" />
  <g
     id="g10"
     inkscape:groupmode="layer"
     inkscape:label="Page 1"
     transform="matrix(1.3333333,0,0,-1.3333333,-682.42612,494.74158)">
    <g
       id="g12"
       transform="matrix(0.1,0,0,0.1,432.00306,-21.073814)">
      <path
         d="M 1225.92,3356.69 H 1113 l 50.41,50.41 z"
         style="fill:#e8a664;fill-opacity:1;fill-rule:nonzero;stroke:none"
         id="path838"
         inkscape:export-filename="soldItems"
         inkscape:export-xdpi="96"
         inkscape:export-ydpi="96" />
      <path
         d="m 1175.51,3645.05 50.41,-288.36 -62.51,50.41 -50.41,-50.41 7.05,81.67 11.09,126.03 19.16,220.8 25.21,-140.14"
         style="fill:#e8a664;fill-opacity:1;fill-rule:nonzero;stroke:none"
         id="path840" />
      <path
         d="M 1120.05,3438.36 1113,3356.69 H 810.531 l 7.059,82.68 5.043,-1.01 h 295.407 2.01"
         style="fill:#febe76;fill-opacity:1;fill-rule:nonzero;stroke:none"
         id="path842" />
      <path
         d="m 1079.73,3785.19 h 70.57 v -2.02 l -19.16,-218.78 -11.09,-126.03 h -1 -296.417 -5.043 l 30.246,345.82 h 70.578 161.316 z m 13.1,-94.77 c 0,7.06 -6.05,13.11 -13.1,13.11 -7.06,0 -13.11,-6.05 -13.11,-13.11 0,-7.06 6.05,-13.11 13.11,-13.11 7.05,0 13.1,7.06 13.1,13.11 z m -176.435,13.11 c -7.059,0 -13.11,-6.05 -13.11,-13.11 0,-7.06 6.051,-13.11 13.11,-13.11 7.058,0 13.109,6.05 13.109,13.11 -1.012,7.06 -7.063,13.11 -13.109,13.11"
         style="fill:#febe76;fill-opacity:1;fill-rule:nonzero;stroke:none"
         id="path844" />
      <path
         d="M 1113,3343.59 H 810.531 c -4.031,0 -7.058,1.01 -9.07,4.03 -2.023,3.03 -4.035,6.05 -3.027,10.08 l 7.054,82.68 30.25,345.82 c 1.004,6.05 6.047,11.09 12.098,11.09 H 1150.3 c 4.04,0 7.06,-1.01 9.08,-4.03 2.01,-3.03 4.03,-6.05 3.02,-10.09 l -19.16,-219.79 c -1,-7.06 -7.05,-12.1 -14.11,-11.09 -7.06,1.01 -12.1,7.06 -11.09,14.12 l 18.15,206.68 H 858.926 L 823.637,3369.8 h 288.353 c 7.06,0 13.11,-6.04 13.11,-13.11 0,-7.06 -6.05,-13.1 -12.1,-13.1"
         style="fill:#000000;fill-opacity:1;fill-rule:nonzero;stroke:none"
         id="path846" />
      <path
         d="m 1126.1,3368.79 h 84.7 l -47.39,274.24 -9.07,48.4 z m 99.82,-25.2 H 1113 c -4.04,0 -7.06,1.01 -9.08,4.03 -2.01,3.03 -4.03,6.05 -3.02,10.08 l 37.3,426.48 c 0,1.01 0,2.02 0,3.03 v 1 c 2.02,5.05 6.05,9.08 12.1,9.08 6.05,0 11.09,-4.03 12.1,-10.08 0,0 0,0 0,-1.01 l 26.21,-138.13 50.41,-289.35 c 1.01,-4.04 0,-7.06 -3.02,-10.09 -3.03,-3.03 -6.05,-5.04 -10.08,-5.04"
         style="fill:#000000;fill-opacity:1;fill-rule:nonzero;stroke:none"
         id="path848" />
      <path
         d="m 1079.73,3691.43 c -7.06,0 -13.11,6.05 -13.11,13.1 v 124.01 c 0,18.15 -7.06,35.29 -20.16,48.4 -13.11,13.1 -30.25,20.16 -48.397,20.16 -37.305,0 -67.555,-30.24 -67.555,-67.55 v -125.02 c 0,-7.05 -6.051,-13.1 -13.106,-13.1 -7.054,0 -13.105,6.05 -13.105,13.1 v 124.01 c 0,51.42 41.34,92.76 92.754,92.76 25.209,0 48.399,-10.08 65.539,-27.22 17.14,-17.14 27.22,-41.34 27.22,-65.54 v -125.01 c 3.02,-6.05 -3.03,-12.1 -10.08,-12.1"
         style="fill:#000000;fill-opacity:1;fill-rule:nonzero;stroke:none"
         id="path850" />
      <path
         d="M 1118.04,3426.27 H 822.633 c -7.063,0 -13.113,6.04 -13.113,13.1 0,7.06 6.05,13.11 13.113,13.11 h 295.407 c 7.06,0 13.1,-6.05 13.1,-13.11 0,-7.06 -6.04,-13.1 -13.1,-13.1"
         style="fill:#000000;fill-opacity:1;fill-rule:nonzero;stroke:none"
         id="path852" />
      <path
         d="m 1225.92,3343.59 c -3.03,0 -5.04,1.01 -8.07,3.03 l -54.44,43.35 -42.35,-42.35 c -5.04,-5.04 -13.11,-5.04 -18.14,0 -5.04,5.04 -5.04,13.11 0,18.15 l 50.41,50.41 c 5.04,5.05 12.09,5.05 17.13,1.01 l 63.52,-50.41 c 5.04,-4.03 6.05,-12.1 2.02,-18.15 -3.03,-3.03 -6.05,-5.04 -10.08,-5.04"
         style="fill:#000000;fill-opacity:1;fill-rule:nonzero;stroke:none"
         id="path854" />
      <path
         d="m 923.453,3476.68 h -88.726 c -7.055,0 -13.106,6.04 -13.106,13.1 0,7.06 6.051,13.11 13.106,13.11 h 88.726 c 7.055,0 13.106,-6.05 13.106,-13.11 0,-7.06 -6.051,-13.1 -13.106,-13.1"
         style="fill:#000000;fill-opacity:1;fill-rule:nonzero;stroke:none"
         id="path856" />
      <path
         d="m 1130.14,3552.29 h -88.72 c -7.06,0 -13.11,6.06 -13.11,13.11 0,7.06 6.05,13.11 13.11,13.11 h 88.72 c 7.06,0 13.1,-6.05 13.1,-13.11 0,-7.05 -6.04,-13.11 -13.1,-13.11"
         style="fill:#000000;fill-opacity:1;fill-rule:nonzero;stroke:none"
         id="path858" />
      <path
         d="m 916.395,3665.21 c -14.114,0 -25.207,11.09 -25.207,25.21 0,14.11 11.093,25.2 25.207,25.2 14.113,0 25.207,-11.09 25.207,-25.2 0,-13.11 -12.098,-25.21 -25.207,-25.21"
         style="fill:#000000;fill-opacity:1;fill-rule:nonzero;stroke:none"
         id="path860" />
      <path
         d="m 1079.73,3665.21 c -14.12,0 -25.21,11.09 -25.21,25.21 0,14.11 11.09,25.2 25.21,25.2 14.11,0 25.2,-11.09 25.2,-25.2 0,-13.11 -11.09,-25.21 -25.2,-25.21"
         style="fill:#000000;fill-opacity:1;fill-rule:nonzero;stroke:none"
         id="path862" />
      <path
         d="m 992.012,3552.29 h -50.41 c -7.059,0 -13.11,6.06 -13.11,13.11 0,7.06 6.051,13.11 13.11,13.11 h 50.41 c 7.054,0 13.108,-6.05 13.108,-13.11 0,-7.05 -7.057,-13.11 -13.108,-13.11"
         style="fill:#000000;fill-opacity:1;fill-rule:nonzero;stroke:none"
         id="path864" />
    </g>
  </g>
</svg>
