<?xml version="1.0" encoding="UTF-8" standalone="no"?>
<!-- Created with Inkscape (http://www.inkscape.org/) -->

<svg
   width="78.137024mm"
   height="51.602505mm"
   viewBox="0 0 78.137024 51.602505"
   version="1.1"
   id="svg8180"
   inkscape:export-filename="makeSale.svg"
   inkscape:export-xdpi="96"
   inkscape:export-ydpi="96"
   inkscape:version="1.2.2 (732a01da63, 2022-12-09)"
   sodipodi:docname="drawing.svg"
   xmlns:inkscape="http://www.inkscape.org/namespaces/inkscape"
   xmlns:sodipodi="http://sodipodi.sourceforge.net/DTD/sodipodi-0.dtd"
   xmlns="http://www.w3.org/2000/svg"
   xmlns:svg="http://www.w3.org/2000/svg">
  <sodipodi:namedview
     id="namedview8182"
     pagecolor="#f5fbff"
     bordercolor="#000000"
     borderopacity="0.25"
     inkscape:showpageshadow="2"
     inkscape:pageopacity="0"
     inkscape:pagecheckerboard="0"
     inkscape:deskcolor="#d1d1d1"
     inkscape:document-units="mm"
     showgrid="false"
     inkscape:zoom="0.18173428"
     inkscape:cx="1815.8379"
     inkscape:cy="770.35549"
     inkscape:window-width="1366"
     inkscape:window-height="705"
     inkscape:window-x="-8"
     inkscape:window-y="-8"
     inkscape:window-maximized="1"
     inkscape:current-layer="g11475" />
  <defs
     id="defs8177" />
  <g
     inkscape:label="Layer 1"
     inkscape:groupmode="layer"
     id="layer1"
     transform="translate(-490.70172,64.822182)">
    <g
       id="g11475"
       transform="matrix(4.5636159,0,0,4.5636159,-130.34977,-7.0901489)"
       style="stroke-width:0.219125">
      <g
         id="g11643-1-9"
         transform="matrix(0.8095321,0,0,0.78086048,69.871332,52.060017)"
         style="display:inline;stroke-width:0.275606">
        <g
           id="g12916"
           transform="matrix(3.6610685,0,0,3.5044306,-306.15113,-317.41106)"
           style="display:inline;stroke-width:0.0769442">
          <g
             id="g20865"
             transform="translate(-7.6550374,-15.190697)">
            <path
               d="m 117.11202,84.502903 h 1.08801 v 1.6269 h -1.08801 v -1.6269"
               style="display:inline;fill:#60534a;fill-opacity:1;fill-rule:nonzero;stroke:none;stroke-width:0.000748107"
               id="path918-6" />
            <path
               d="m 118.79694,83.255353 v 2.86445 h -0.60665 v -1.6169 h -1.07827 v 1.6169 h -0.60646 v -3.86263 l 0.48137,0.99818 h 1.81001"
               style="display:inline;fill:#e8a664;fill-opacity:1;fill-rule:nonzero;stroke:none;stroke-width:0.000748107"
               id="path920-1" />
            <path
               d="m 115.42729,86.119803 h -1.20346 v -2.86445 h 1.80037 l 0.48136,-0.99818 v 3.86263 h -1.07827"
               style="display:inline;fill:#e8a664;fill-opacity:1;fill-rule:nonzero;stroke:none;stroke-width:0.000748107"
               id="path922-2" />
            <path
               d="m 118.79694,82.257173 0.48137,0.99818 h -2.29138 l -0.48137,-0.99818 h 2.29138"
               style="display:inline;fill:#febe76;fill-opacity:1;fill-rule:nonzero;stroke:none;stroke-width:0.000748107"
               id="path924-8" />
            <path
               d="m 116.50556,82.257173 -0.48136,0.99818 h -2.28173 l 0.48136,-0.99818 h 2.28173"
               style="display:inline;fill:#febe76;fill-opacity:1;fill-rule:nonzero;stroke:none;stroke-width:0.000748107"
               id="path926-6" />
            <path
               d="m 119.27831,83.375033 h -0.48137 c -0.0674,0 -0.12518,-0.0598 -0.12518,-0.12968 0,-0.0699 0.0578,-0.12979 0.12518,-0.12979 h 0.28876 l -0.36582,-0.73861 h -2.21432 c -0.0673,0 -0.12518,-0.0599 -0.12518,-0.12968 0,-0.0699 0.0579,-0.12979 0.12518,-0.12979 h 2.29138 c 0.0481,0 0.0866,0.0299 0.10581,0.0699 l 0.48146,0.99808 c 0.0192,0.0399 0.0192,0.0798 -0.01,0.11979 -0.0193,0.0499 -0.0578,0.0698 -0.0962,0.0698"
               style="display:inline;fill:#000000;fill-opacity:1;fill-rule:nonzero;stroke:none;stroke-width:0.000748107"
               id="path928-3" />
            <path
               d="m 118.79694,86.249583 c -0.0674,0 -0.12518,-0.0599 -0.12518,-0.12978 v -2.74477 h -1.68483 c -0.0481,0 -0.0867,-0.0299 -0.1059,-0.0698 l -0.48136,-0.99808 c -0.0289,-0.0599 -0.01,-0.13978 0.0578,-0.16968 0.0577,-0.03 0.13473,-0.01 0.16367,0.0598 l 0.45243,0.92829 h 1.73295 c 0.0674,0 0.12519,0.0599 0.12519,0.12978 v 2.87446 c -0.0192,0.0599 -0.0771,0.11978 -0.13474,0.11978"
               style="display:inline;fill:#000000;fill-opacity:1;fill-rule:nonzero;stroke:none;stroke-width:0.000748107"
               id="path930-0" />
            <path
               d="m 114.22383,86.249583 c -0.0674,0 -0.12509,-0.0599 -0.12509,-0.12978 v -2.86445 c 0,-0.0699 0.0577,-0.12979 0.12509,-0.12979 0.0674,0 0.12519,0.0599 0.12519,0.12979 v 2.87445 c -0.01,0.0599 -0.0674,0.11978 -0.12519,0.11978"
               style="display:inline;fill:#000000;fill-opacity:1;fill-rule:nonzero;stroke:none;stroke-width:0.000748107"
               id="path932-1" />
            <path
               d="m 116.50556,86.249583 c -0.0673,0 -0.12518,-0.0599 -0.12518,-0.12978 v -3.86263 c 0,-0.0698 0.0579,-0.12969 0.12518,-0.12969 0.0674,0 0.1251,0.0599 0.1251,0.12969 v 3.87263 c 0,0.0599 -0.0577,0.11978 -0.1251,0.11978"
               style="display:inline;fill:#000000;fill-opacity:1;fill-rule:nonzero;stroke:none;stroke-width:0.000748107"
               id="path934-4" />
            <path
               d="m 113.93507,83.125563 h 2.02171 l 0.35618,-0.74861 h -2.02171 z m 2.08913,0.24947 h -2.28173 c -0.0385,0 -0.0771,-0.0199 -0.1059,-0.0598 -0.0193,-0.04 -0.0193,-0.0799 -0.01,-0.11978 l 0.48137,-0.99818 c 0.0193,-0.0399 0.0578,-0.0698 0.1059,-0.0698 h 2.29137 c 0.0385,0 0.077,0.0199 0.1059,0.0599 0.0192,0.0399 0.0192,0.0798 0.01,0.11978 l -0.48137,0.99808 c -0.0289,0.0399 -0.0675,0.0698 -0.11554,0.0698"
               style="display:inline;fill:#000000;fill-opacity:1;fill-rule:nonzero;stroke:none;stroke-width:0.000748107"
               id="path936-8" />
            <path
               d="m 118.19029,86.249583 c -0.0673,0 -0.12509,-0.0599 -0.12509,-0.12978 v -1.49712 h -0.84718 v 1.49712 c 0,0.0699 -0.0578,0.12978 -0.12519,0.12978 -0.0674,0 -0.1059,-0.0599 -0.1059,-0.12978 v -1.6169 c 0,-0.0698 0.0578,-0.12969 0.12509,-0.12969 h 1.08801 c 0.0673,0 0.1251,0.0599 0.1251,0.12969 v 1.6269 c -0.01,0.0599 -0.0674,0.11978 -0.13484,0.11978"
               style="display:inline;fill:#000000;fill-opacity:1;fill-rule:nonzero;stroke:none;stroke-width:0.000748107"
               id="path938-9" />
            <path
               d="m 114.94593,86.249583 c -0.0674,0 -0.12519,-0.0599 -0.12519,-0.12978 v -1.49712 c 0,-0.0698 0.0578,-0.12968 0.12519,-0.12968 0.0674,0 0.12509,0.0599 0.12509,0.12968 v 1.49712 c -0.01,0.0699 -0.0673,0.12978 -0.12509,0.12978"
               style="display:inline;fill:#000000;fill-opacity:1;fill-rule:nonzero;stroke:none;stroke-width:0.000748107"
               id="path940-0" />
            <path
               d="m 115.42729,86.249583 c -0.0674,0 -0.12519,-0.0599 -0.12519,-0.12978 v -1.49712 c 0,-0.0698 0.0578,-0.12968 0.12519,-0.12968 0.0674,0 0.12509,0.0599 0.12509,0.12968 v 1.49712 c -0.01,0.0699 -0.0673,0.12978 -0.12509,0.12978"
               style="display:inline;fill:#000000;fill-opacity:1;fill-rule:nonzero;stroke:none;stroke-width:0.000748107"
               id="path942-1" />
            <path
               d="m 119.15312,86.249583 h -5.29511 c -0.0674,0 -0.12519,-0.0599 -0.12519,-0.12978 0,-0.0698 0.0578,-0.12968 0.12519,-0.12968 h 5.29511 c 0.0673,0 0.12519,0.0599 0.12519,0.12968 0,0.0699 -0.0579,0.12978 -0.12519,0.12978"
               style="display:inline;fill:#000000;fill-opacity:1;fill-rule:nonzero;stroke:none;stroke-width:0.000748107"
               id="path944-1" />
          </g>
        </g>
      </g>
    </g>
  </g>
</svg>
